<?xml version="1.0" encoding="UTF-8"?>
<svg id="Warstwa_1" data-name="Warstwa 1" xmlns="http://www.w3.org/2000/svg" viewBox="0 0 223.2 277.16">
  <defs>
    <style>
      .cls-1 {
        fill: #fe5d26;
      }

      .cls-1, .cls-2 {
        stroke: #fe5d26;
        stroke-miterlimit: 10;
      }

      .cls-3 {
        fill: #ffbea8;
      }

      .cls-4 {
        fill: #ffdfd4;
      }
    </style>
  </defs>
  <polygon class="cls-1" points="117.37 200.5 117.37 200.66 115.63 200.57 117.37 200.5"/>
  <polygon class="cls-1" points="115.63 200.57 113.89 200.66 113.89 200.5 115.63 200.57"/>
  <g>
    <path class="cls-1" d="m175.49,233.37c-3.4,21.93-13.96,41.42-13.96,41.42l-39.38,1.79-1.74.07-1.74-.07-39.38-1.79s-10.55-19.5-13.95-41.42c-3.41-21.91,17.98-27.25,17.98-27.25l2.1-99.93,34.99,5.58,34.99-5.58,2.1,99.93s21.39,5.34,17.99,27.25Z"/>
    <path class="cls-4" d="m133.2,173.94c-.32,11.06-.79,22.41-1.42,34.01-.91,16.67-2.08,32.77-3.48,48.26,0,2.05-.17,9.39-4.11,12.49-.46.36-1.96,1.54-3.17,1.24-.21-.05-.41-.15-.59-.29-.18.14-.38.24-.6.29-1.22.3-2.73-.88-3.18-1.24-3.94-3.1-4.1-10.44-4.1-12.49-1.39-15.49-2.57-31.59-3.48-48.26-.63-11.6-1.1-22.95-1.42-34.01-.26-2.26-2.27-21,2.45-23.24,3.17-1.5,7.9,5.14,8.6,6.13.63.89,1.21,1.81,1.73,2.75.51-.94,1.09-1.86,1.72-2.75.7-.99,5.42-7.63,8.59-6.13,4.73,2.24,2.72,20.98,2.46,23.24Z"/>
  </g>
  <path class="cls-1" d="m77.26,259c.74-1.31,1.27-2.49,1.67-3.87-12.8-6.64-26.47,11.98-32.87-26.34-3.97-23.78-36.79-25.48-36.79-25.48,0,0-29.14,59.23,18.86,65.7,29.12,3.92,43.94-4.8,49.72-9.96.15-.13.24-.31.28-.5.1-.47-1.12.89-.87.45Z"/>
  <path class="cls-3" d="m10.65,232.92c5.55-1.02,7.4,2.08,12.13.77,6.65-1.85,6.59-9.01,13.28-9.96,3.94-.56,7.29,1.24,7.29,1.24,1.47.79,2.47,1.76,3.09,2.45-4.66-23.02-37.47-24.7-37.47-24.7,0,0-9.73,19.34-8.91,37.12,2.1-2.56,5.61-5.99,10.6-6.91Z"/>
  <g>
    <path class="cls-1" d="m218.63,118.54l-81.06,57.15c-2.39,1.68-5.47,2.33-8.48,1.79l-42.95-7.71c-3.01-.54-5.68-2.22-7.33-4.63L22.86,83.65c-5.06-7.37,1.58-16.5,10.81-14.85l.14.03c5.88,1.05,11.42-2.46,12.38-7.83,0,0,26.38-63.56,44.11-60.38l37.84,17.57c4.53,2.1,9.52,3,14.49,2.6l41.68-3.31c17.72,3.18,20.39,71.71,20.39,71.71-.97,5.39,3.03,10.61,8.92,11.66h0c9.24,1.64,12.32,12.53,5,17.69Z"/>
    <rect class="cls-2" x="82.26" y="70.48" width="16.88" height="30.33" rx="7.97" ry="7.97" transform="translate(16.55 -14.67) rotate(10.17)"/>
    <path class="cls-3" d="m73,114.42c-16.19-9.09-32.37-18.18-48.56-27.27,17.75,25.86,35.5,51.71,53.25,77.57l-4.7-50.3Z"/>
    <path class="cls-3" d="m160.44,130.11c18.34-2.9,36.67-5.79,55.01-8.69-25.63,18.07-51.27,36.14-76.9,54.21l21.89-45.52Z"/>
    <rect class="cls-2" x="147.08" y="82.11" width="16.88" height="30.33" rx="7.97" ry="7.97" transform="translate(19.63 -25.94) rotate(10.17)"/>
    <path d="m96.37,172.06l.79-1.19c4.18-6.25,13.61-5.41,16.63,1.47l1.36,3.11-18.78-3.4Z"/>
    <polygon class="cls-3" points="86.42 13.53 79.84 23.25 95.92 23.52 86.42 13.53"/>
    <polygon class="cls-3" points="181.59 30.61 184.38 42.01 169.21 36.67 181.59 30.61"/>
  </g>
</svg>